<svg viewBox="0 0 64 64" xmlns="http://www.w3.org/2000/svg" xmlns:xlink="http://www.w3.org/1999/xlink"><linearGradient id="a" gradientUnits="userSpaceOnUse" x1="45.5011729469" x2="42.71974974555" y1="31.33431513237" y2="22.58257588374"><stop offset="0"/><stop offset="1" stop-opacity="0"/></linearGradient><g stroke="#000"><g transform="matrix(.27735719 0 0 .27735719 -2.564057 -5.73753)"><path d="m61.518289 183.14065-1.060659 14.84925 45.07806-6.89429v-2.65166z" fill="#ff8080"/><path d="m105.53569 188.44395 91.58931 1.36855-91.58931 1.28311z" fill="#e9c6af"/><g fill="none" stroke-linecap="round"><path d="m61.606678 189.68139 7.954951.7955"/><path d="m61.154013 196.14186 3.181981-.26516"/><path d="m60.876256 193.14346 14.499427-1.35245"/><path d="m61.5 187.0625 6-.1875"/></g></g><g transform="matrix(.27352738 .04593238 -.04593238 .27352738 2.708643 -11.895754)"><path d="m61.518289 183.14065-1.060659 14.84925 45.07806-6.89429v-2.65166z" fill="#ff8080"/><path d="m105.53569 188.44395 91.58931 1.36855-91.58931 1.28311z" fill="#e9c6af"/><g fill="none" stroke-linecap="round"><path d="m61.606678 189.68139 7.954951.7955"/><path d="m61.154013 196.14186 3.181981-.26516"/><path d="m60.876256 193.14346 14.499427-1.35245"/><path d="m61.5 187.0625 6-.1875"/></g></g><g transform="matrix(.27280841 .0500258 -.0500258 .27280841 5.566831 -10.708789)"><path d="m61.518289 183.14065-1.060659 14.84925 45.07806-6.89429v-2.65166z" fill="#ff8080"/><path d="m105.53569 188.44395 91.58931 1.36855-91.58931 1.28311z" fill="#e9c6af"/><g fill="none" stroke-linecap="round"><path d="m61.606678 189.68139 7.954951.7955"/><path d="m61.154013 196.14186 3.181981-.26516"/><path d="m60.876256 193.14346 14.499427-1.35245"/><path d="m61.5 187.0625 6-.1875"/></g></g><g transform="matrix(.27694368 .01513972 -.01513972 .27694368 -1.341463 -5.903813)"><path d="m61.518289 183.14065-1.060659 14.84925 45.07806-6.89429v-2.65166z" fill="#ff8080"/><path d="m105.53569 188.44395 91.58931 1.36855-91.58931 1.28311z" fill="#e9c6af"/><g fill="none" stroke-linecap="round"><path d="m61.606678 189.68139 7.954951.7955"/><path d="m61.154013 196.14186 3.181981-.26516"/><path d="m60.876256 193.14346 14.499427-1.35245"/><path d="m61.5 187.0625 6-.1875"/></g></g><g transform="matrix(.27718743 -.00970265 .00970265 .27718743 -8.356624 -3.766888)"><path d="m61.518289 183.14065-1.060659 14.84925 45.07806-6.89429v-2.65166z" fill="#ff8080"/><path d="m105.53569 188.44395 91.58931 1.36855-91.58931 1.28311z" fill="#e9c6af"/><g fill="none" stroke-linecap="round"><path d="m61.606678 189.68139 7.954951.7955"/><path d="m61.154013 196.14186 3.181981-.26516"/><path d="m60.876256 193.14346 14.499427-1.35245"/><path d="m61.5 187.0625 6-.1875"/></g></g><path d="m2.7020545 31.699264c-2.52592403.676819-.330155 8.087965 2.19577 7.411145 9.2850335-2.487915 40.7027545-12.336894 55.0059865-16.751396 2.453463-.757229.885603-8.307615-1.565336-7.542257-17.518356 5.470481-43.5933 13.655565-55.6364205 16.882508z" fill="#ff7f2a" stroke-width=".284525"/></g><ellipse cx="70.980354" cy="-56.741138" rx="3.182355" ry="2.254572" transform="matrix(.38384515 .92339748 -.56104247 .82778702 0 0)"/><path d="m58.455517 14.791399c-2.357689.697876-1.651999 7.797615 1.328119 7.609" fill="none" stroke="#000" stroke-width=".284525"/><path d="m2.7020545 31.699264c-2.52592403.676819-.330155 8.087965 2.19577 7.411145 9.2850335-2.487915 40.7027545-12.336894 55.0059865-16.751396 2.453463-.757228.885603-8.307615-1.565336-7.542256-17.518356 5.47048-43.5933 13.655564-55.6364205 16.882507z" fill="url(#a)" stroke="#000" stroke-width=".284525"/></svg>