<svg viewBox="0 0 64 64" xmlns="http://www.w3.org/2000/svg" xmlns:xlink="http://www.w3.org/1999/xlink"><linearGradient id="a" gradientTransform="matrix(2.6775907 0 0 1.238725 -52.494597 -7.579157)" gradientUnits="userSpaceOnUse" x1="33.904507" x2="24.553396" y1="8.748276" y2="32.154488"><stop offset="0" stop-color="#f55"/><stop offset="1" stop-color="#ff7f2a"/></linearGradient><linearGradient id="b" gradientUnits="userSpaceOnUse" x1="45.331848" x2="40.327896" y1="30.890648" y2="26.203148"><stop offset="0"/><stop offset="1" stop-opacity="0"/></linearGradient><path d="m7.0818494 60.640157c-1.0611035 1.107909 1.6481255 1.609625 2.4433767 1.25608l52.8610079-58.2762352c.414335-.9865397-1.644523-1.7045001-2.396504-.99827z" fill="url(#a)" stroke="#000" stroke-linecap="round" stroke-linejoin="round" stroke-width=".265"/><path d="m60.698203 2.9368606c-.03592.1363565.390605.4685957 1.125702.5162999" fill="none" stroke="#ff2a2a" stroke-linecap="round" stroke-linejoin="round" stroke-width="1.3"/><g stroke="#000"><path d="m7.0818494 60.640157c-1.0611035 1.107909 1.6481255 1.609625 2.4433767 1.25608l52.8610079-58.2762343c.285429-.5646647-1.644523-1.7045001-2.396504-.99827z" fill="url(#b)" stroke-linecap="round" stroke-linejoin="round" stroke-width=".265"/><path d="m50.491844 13.092524 1.723572 1.856155" fill="none" stroke-width=".265"/><path d="m52.132552 14.689039.232019 2.767661" fill="none" stroke-width=".1"/><g stroke-width=".838742" transform="matrix(.0252298 -.11652611 .11652611 .0252298 47.437882 23.073153)"><path d="m12.103401 54.770067s8.8072 3.374267 13.322449 2.87347c6.389045-.708624 12.437152-4.139556 17.50204-8.097959 4.050167-3.16536 9.313551-6.888011 9.665306-12.016327.138976-2.026156-3.134693-5.22449-3.134693-5.22449l6.269388-.783673c-.435375-.696598-.870749-1.393197-1.306123-2.089796l-6.269388 1.044898s-2.23722-1.271524-3.395918-1.828571c-4.008473-1.927083-7.830565-5.300777-12.277551-5.22449-5.764531.09889-11.652528 3.182502-15.673469 7.314286-3.508614 3.605334-5.301351 8.864012-6.008164 13.844897-.481023 3.389754 1.306123 10.187755 1.306123 10.187755z" fill="#ffd42a"/><g fill="none" stroke-linecap="round"><path d="m15.32517 51.330612s4.245539-7.009613 7.183673-9.795918c3.17187-3.007963 6.952815-5.463399 10.971429-7.183674 3.698953-1.583435 11.755102-2.742857 11.755102-2.742857"/><path d="m21.594558 50.546938.914285-9.012244-6.138775 1.436734"/><path d="m27.994558 45.714285 1.959183-9.012244-9.534694-.391837"/><path d="m34.263945 41.92653 4.179592-8.489796-9.534694-3.004081"/></g></g></g></svg>