<svg viewBox="0 0 64 64" xmlns="http://www.w3.org/2000/svg"><path d="m11.179833 44.426105s8.8072 3.374267 13.322449 2.87347c6.389045-.708624 12.437152-4.139556 17.50204-8.097959 4.050167-3.16536 9.313551-6.888011 9.665306-12.016327.138976-2.026156-3.134693-5.22449-3.134693-5.22449l6.269388-.783673c-.435375-.696598-.870749-1.393197-1.306123-2.089796l-6.269388 1.044898s-2.23722-1.271524-3.395918-1.828571c-4.008473-1.927083-7.830565-5.300777-12.277551-5.22449-5.764531.09889-11.652528 3.182502-15.673469 7.314286-3.508614 3.605334-5.301351 8.864012-6.008164 13.844897-.481023 3.389754 1.306123 10.187755 1.306123 10.187755z" fill="#ff2a2a" stroke="#5c1800" stroke-width=".265"/><g fill="#ff7f2a"><path d="m31.86123 13.129125s1.296013-.03994 1.911491.130528c1.213448.336082 2.558231.895463 3.978472 1.612546 1.42024.717082 2.915936 1.591867 4.431211 2.558756.524965.334978 1.880317.986859 3.010678 1.578433s2.03573 1.12284 2.03573 1.12284l.827511-.152373 1.662423 1.75478-1.183811.22616s2.707111 2.856012 3.077126 4.761103c.309687 1.594485-1.431531 4.802554-1.431531 4.802554s-5.851197-6.631494-8.97215-9.760163c-2.995695-3.003101-9.34715-8.635164-9.34715-8.635164z"/><path d="m18.339477 18.192413s6.701196 5.18717 9.734947 8.13248c4.464595 4.334442 12.386597 13.96611 12.386597 13.96611s1.841646-1.291602 2.715593-1.972559c.873948-.680957 2.528094-2.113184 2.528094-2.113184s-7.542324-9.050725-11.772528-13.133672c-3.091671-2.984047-9.897529-8.258672-9.897529-8.258672s-1.992674.889276-2.929619 1.443654c-.968432.573008-2.765555 1.935843-2.765555 1.935843z"/><path d="m28.372419 46.483845 3.490574-1.179319 2.993388-1.444485s-7.849906-9.357331-12.245243-13.580268c-2.743817-2.636195-8.776493-7.299018-8.776493-7.299018s-1.169881 1.961776-1.641074 2.999506c-.478192 1.053142-1.195763 3.257319-1.195763 3.257319s5.021457 3.746106 7.281055 5.904383c3.659737 3.495633 10.093556 11.341882 10.093556 11.341882z"/><path d="m9.9336145 37.458728s2.8836015 2.445214 4.2398535 3.760075c1.848202 1.791798 5.300514 5.616231 5.300514 5.616231s-2.83511-.635052-4.229105-1.040402c-1.372878-.399209-4.065044-1.368527-4.065044-1.368527l-.752015-3.495407z"/></g><path d="m11.179833 44.426105s8.8072 3.374267 13.322449 2.87347c6.389045-.708624 12.437152-4.139556 17.50204-8.097959 4.050167-3.16536 9.313551-6.888011 9.665306-12.016327.138976-2.026156-3.134693-5.22449-3.134693-5.22449l6.269388-.783673c-.435375-.696598-.870749-1.393197-1.306123-2.089796l-6.269388 1.044898s-2.23722-1.271524-3.395918-1.828571c-4.008473-1.927083-7.830565-5.300777-12.277551-5.22449-5.764531.09889-11.652528 3.182502-15.673469 7.314286-3.508614 3.605334-5.301351 8.864012-6.008164 13.844897-.481023 3.389754 1.306123 10.187755 1.306123 10.187755z" fill="none" stroke="#000" stroke-width=".265"/><g fill="none" stroke="#000" stroke-linecap="round" stroke-width=".265" transform="translate(-.923568 -10.343962)"><path d="m15.32517 51.330612s4.245539-7.009613 7.183673-9.795918c3.17187-3.007963 6.952815-5.463399 10.971429-7.183674 3.698953-1.583435 11.755102-2.742857 11.755102-2.742857"/><path d="m21.594558 50.546938.914285-9.012244-6.138775 1.436734"/><path d="m27.717488 45.344858 1.959183-9.012244-9.534694-.391837"/><path d="m33.802161 41.464746 4.179592-8.489796-9.534694-3.004081"/></g></svg>