<svg viewBox="0 0 64 64" xmlns="http://www.w3.org/2000/svg"><path d="m41.998823 12.223417c2.633924 1.412673 4.148171 4.253258 4.811172 7.566467.423084 3.516144-5.13088 8.494032-6.48741 11.668387 0 0 11.292022 8.596614 11.243379 14.788951-.03638 4.631468-4.317932 9.119638-8.582051 10.927707-7.189476 3.048476-16.661037 1.698447-23.30315-2.408147-3.144755-1.944296-6.139695-5.667925-5.950765-9.36036.35668-6.970942 12.979421-16.432466 12.979421-16.432466.184682-2.535735-1.185457-12.889445 3.085611-16.508356 3.104246-2.6302537 8.618219-2.165263 12.203793-.242183z" fill="#f4cfb3" stroke="#000" stroke-width=".265"/><path d="m51.443719 44.808677c-.221039-1.090679-2.368789-2.352614-2.368789-2.352614s-1.673568 1.835748-2.185667 2.946136c-.877667 1.903051.186586 4.768044-1.408558 6.127241-3.522698 3.001636-9.226136 1.004402-13.853521.923568-3.341536-.05837-6.955742.418007-9.974535-1.015925-1.533727-.728524-3.601915-3.601915-3.601915-3.601915s.423579 2.358898.936132 3.426085c.518125 1.078789 2.111642 2.903637 2.111642 2.903637s1.393823.800683 3.175928 1.639719c1.782104.839037 3.952489 1.716427 5.505612 1.86984 5.924501.585205 13.189091.254604 17.874324-3.618723 2.567379-2.122476 4.450985-5.982302 3.789347-9.247049z" fill="#00b600"/><path d="m13.886119 47.486227c-.378569-1.185865.278993-3.724041.278993-3.724041s3.1235 1.158045 4.275463 2.293074c1.806207 1.779656 1.552865 5.291774 3.694272 6.64969 3.908503 2.478473 9.226136 1.004402 13.853521.923568 3.341536-.05837 6.955742.418007 9.974535-1.015925 1.533727-.728524 3.601915-3.601915 3.601915-3.601915s-.404041 2.368503-.936132 3.426085c-.528161 1.049771-2.176948 2.773025-2.176948 2.773025s-1.328517.931295-3.110622 1.770331c-1.782104.839037-4.091024 1.485535-5.644147 1.638948-5.924501.585205-12.324629-.400165-17.409258-3.420484-2.872451-1.706264-5.385545-4.529596-6.401592-7.712356z" fill="#008000"/><path d="m15.665555 51.039126s7.507589 2.546015 11.366473 2.308581c7.535036-.463624 16.773751-1.287727 21.47465-7.194779 2.75247-3.458696 2.834905-2.666611 3.017825-.189917.09146 1.238346-.08807 2.556213-1.062805 4.269926-.953148 1.675766-2.005261 3.671484-5.444365 5.895762-2.301973 1.488826-5.287209 2.321309-8.221698 2.5901s-5.926155-.04474-8.749472-.420583c-2.606898-.347036-5.238679-1.617226-7.550847-3.036064-.911366-.55925-2.257341-1.545739-3.23694-2.461683s-1.592821-1.761343-1.592821-1.761343z" fill-opacity=".145161"/><path d="m41.998823 12.223417c2.633924 1.412673 4.148171 4.253258 4.811172 7.566467.423084 3.516144-5.13088 8.494032-6.48741 11.668387 0 0 11.292022 8.596614 11.243379 14.788951-.03638 4.631468-4.317932 9.119638-8.582051 10.927707-7.189476 3.048476-16.661037 1.698447-23.30315-2.408147-3.144755-1.944296-6.139695-5.667925-5.950765-9.36036.35668-6.970942 12.979421-16.432466 12.979421-16.432466.184682-2.535735-1.185457-12.889445 3.085611-16.508356 3.104246-2.6302537 8.618219-2.165263 12.203793-.242183z" fill="none" stroke="#000" stroke-width=".265"/><path d="m26.768081 27.691649-.138536-3.070865s3.189226.891625 4.799767 1.274086c2.326904.552579 4.650798 1.160986 7.021904 1.47353 1.436072.189294 4.338848.240052 4.338848.240052l-1.845214 2.692271s-2.245923-.012-3.355177-.164903c-2.320439-.319858-4.564913-1.05299-6.85025-1.566784-1.322687-.297369-3.971342-.877392-3.971342-.877392z" fill="#520" stroke="#000" stroke-width=".265"/><path d="m36.826842 7.2361495-.738855 3.4172015s1.952156.755042 2.961981 1.021527c.966719.25511 2.948855.548539 2.948855.548539l1.015925-3.140132s-1.916761-.7572854-2.902278-1.0541797c-1.078764-.3249856-3.285628-.7929558-3.285628-.7929558z" fill="#e3dbdb" stroke="#000" stroke-width=".265"/><g fill="#483737"><ellipse cx="57.412689" cy="-23.091103" rx="3.650731" ry="4.296008" transform="matrix(.29781649 .95462314 -.90568086 .42396011 0 0)"/><ellipse cx="17.740795" cy="-50.114811" rx="2.123677" ry="1.346678" transform="matrix(-.52667299 .85006797 -.84624569 -.53279285 0 0)"/><ellipse cx="44.604145" cy="-34.079369" rx="1.64466" ry="1.151714" transform="matrix(-.05738083 .99835236 -.99829872 -.05830664 0 0)"/><ellipse cx="-35.023029" cy="-41.383198" rx="2.015503" ry="1.354423" transform="matrix(-.99815741 .06067771 -.05971452 -.9982155 0 0)"/></g></svg>