<svg viewBox="0 0 64 64" xmlns="http://www.w3.org/2000/svg" xmlns:xlink="http://www.w3.org/1999/xlink"><linearGradient id="a" gradientUnits="userSpaceOnUse" x1="42.333332" x2="104.51041" y1="89.958336" y2="108.47916"><stop offset="0" stop-color="#fafaf5"/><stop offset="1" stop-color="#dadad6"/></linearGradient><g stroke="#000" stroke-width=".365528" transform="matrix(.72497868 0 0 .72497868 -23.635499 -32.267774)"><path d="m115.03507 84.463562a38.190434 7.9285688 0 0 1 -38.190435 7.928569 38.190434 7.9285688 0 0 1 -38.190433-7.928569 38.190434 7.9285688 0 0 1 38.190433-7.928569 38.190434 7.9285688 0 0 1 38.190435 7.928569z" fill="#fafaf5" stroke-linecap="square"/><g fill="#fa0e0e" stroke-linecap="square" transform="translate(2.525697 1.543482)"><ellipse cx="61.883373" cy="90.056236" rx="2.645833" ry="3.307292" transform="matrix(.99390032 -.11028217 .11028217 .99390032 0 0)"/><ellipse cx="89.07653" cy="66.568741" rx="2.645833" ry="3.307292" transform="matrix(.9807997 .19501779 -.19501779 .9807997 0 0)"/></g><path d="m43.127083 89.69375s15.060033-6.144262 22.985677-6.085417c5.87389.04361 16.966407 4.7625 16.966407 4.7625" fill="#fafadc"/><path d="m75.538542 89.495312c2.645835 2.645834 7.80521.463022 13.096875.463021 3.741773-.000001 9.176054-4.406655 7.937501-7.937499-1.321767-3.768071-8.126147-2.609871-11.90625-1.322916-4.000322 1.36193-11.563475 6.362045-9.128126 8.797394z" fill="#dcfab7"/><g stroke-linecap="square" transform="matrix(-1 0 0 1 184.56091 1.070253)"><g transform="matrix(-.99331801213 .11540941773 -.11540941773 -.99331801213 57.687623 199.783246)"><ellipse cx="-42.490803" cy="111.88642" fill="#fffef9" rx="5.027083" ry="6.614583"/><ellipse cx="-42.272442" cy="110.98985" fill="#feffb2" rx="2.844918" ry="3.743313"/></g><g transform="matrix(.42509268 -.90514983 .90514983 .42509268 0 0)"><ellipse cx="-42.490803" cy="111.88642" fill="#fffef9" rx="5.027083" ry="6.614583"/><ellipse cx="-42.272442" cy="110.98985" fill="#feffb2" rx="2.844918" ry="3.743313"/></g></g><path d="m58.7375 84.666667s-.347257.305505-.429947.51263c-.198623.497518-.09922 1.604036-.09922 1.604036" fill="none"/><g fill="#ffead4"><path d="m47.625 89.958333s11.29311-4.36547 17.149209-3.98313c7.536177.492031 21.215374 7.95188 21.215374 7.95188"/><path d="m56.091666 88.9c.154109-.241153 2.438644-1.656639 3.439584-.264583"/><path d="m64.558333 91.28125s2.79211-1.068424 3.704167.264583"/><path d="m67.204167 87.047917s1.593459-.679573 2.645833.79375"/><path d="m56.93819 87.30979c.717079-.935623 4.053892-2.001806 5.238893-.79104"/><path d="m50.535417 89.164583s1.328877-1.473324 2.38125 0"/><path d="m72.561979 92.145281c1.57427-1.641401 2.645834-1.322917 3.902604-.334864"/></g><path d="m105.83333 95.25s.26721-3.543291-.72358-4.838618c-2.5974-3.395763-7.506515-4.597715-11.745756-5.15135-3.811357-.497755-8.042704 1.998981-11.395436 1.764045-2.866395-.200857-6.058098-.144082-7.616498 1.964432-1.13689 1.538208.26044 5.732324.26044 5.732324z" fill="#0daa12"/><path d="m67.733333 97.102083s2.863763-4.559327 4.956926-6.161534c3.394854-2.598585 7.506511-4.597715 11.745752-5.15135 3.811357-.497755 8.042704 1.998981 11.395435 1.764045 2.866398-.200857 6.058094-.144082 7.616494 1.964432 1.13689 1.538208-.26044 5.732324-.26044 5.732324z" fill="#09780d"/><g fill="none"><path d="m51.329167 86.783333s-.347257.305506-.429947.512631c-.198622.497518-.09922 1.604036-.09922 1.604036"/><path d="m50.270833 87.047917s-.347256.305505-.429946.51263c-.198622.497518-.09922 1.604036-.09922 1.604036"/><path d="m48.947917 87.577083s-.202569.365169-.226819.567408c-.06378.53189.226819 1.591015.226819 1.591015"/><path d="m61.11875 84.1375s-.445644.362512-.570507.61185c-.188088.375592-.223243 1.240233-.223243 1.240233"/><path d="m62.441667 83.872917s-.771336.614789-.959114 1.050066c-.176254.408562-.09922 1.331184-.09922 1.331184"/><path d="m47.889583 87.841667s-.292517.472186-.29163.736109c.0018.535698.601961 1.490107.601961 1.490107"/><path d="m63.235417 83.872917s-.49909.55725-.620117.901237c-.14859.422331-.09922 1.339453-.09922 1.339453"/><path d="m64.558333 83.608333s-.819465.65786-1.008724 1.12448c-.157577.38851-.04961 1.25677-.04961 1.25677"/></g><path d="m64.29375 83.872917s3.902496-.265719 5.803323.09472c2.134368.404721 6.102927 2.28653 6.102927 2.28653" fill="#fafadc"/><path d="m63.764583 84.402083s3.733718-.000282 5.557769.343254c2.184129.411351 6.348482 2.037997 6.348482 2.037997" fill="none"/><path d="m63.235417 85.195833s3.709902.003 5.52269.343253c2.195322.412084 6.383561 2.037997 6.383561 2.037997" fill="none"/><path d="m59.795833 84.402083s-.435801.400965-.529165.669728c-.12933.372294-.000001 1.182356-.000001 1.182356" fill="none"/><path d="m50.8 87.047917s2.451934-1.21131 3.770313-1.529623c1.183422-.285729 3.63802-.322461 3.63802-.322461" fill="#fafadc"/><path d="m50.8 87.841667s2.451934-1.21131 3.770313-1.529623c1.183422-.285729 3.63802-.322461 3.63802-.322461" fill="#fafadc"/><g fill="url(#a)"><path d="m91.28125 103.98125s-.365468 2.54427-1.322917 3.175c-6.702544 4.41536-17.5285 4.37607-24.077083-.26458-.842249-.59686-1.058333-2.91042-1.058333-2.91042"/><path d="m39.158333 85.725s.626233 8.121712 11.90625 14.2875c11.280018 6.16579 41.022979 7.10296 51.593747 0 10.57077-7.102962 11.90625-14.2875 11.90625-14.2875s-5.47066 2.825043-13.05069 4.536194c-7.580032 1.711151-17.269422 2.308411-23.461807 2.342973-6.582802.03674-16.867506-.420202-24.945243-2.149179s-13.948507-4.729988-13.948507-4.729988z"/></g></g></svg>