<svg viewBox="0 0 64 64" xmlns="http://www.w3.org/2000/svg" xmlns:xlink="http://www.w3.org/1999/xlink"><radialGradient id="a" cx="101.74107" cy="149.37817" gradientTransform="matrix(1.1321262 -.16573137 .05392423 .36836135 -90.46267 -17.812408)" gradientUnits="userSpaceOnUse" r="32.081261"><stop offset="0" stop-color="#f98634"/><stop offset="1" stop-color="#ffc966" stop-opacity="0"/></radialGradient><path d="m31.731418 16.547578c-8.255072.819675-19.895996 3.741352-21.918912 11.786589-1.4311576 5.691784 4.103834 12.612522 9.71876 14.681524 9.752684 3.593707 18.420974 5.141104 28.432546.72374 6.852878-3.023659 10.684702-13.572461 7.54755-19.954474-3.655169-7.435822-15.534856-8.056062-23.779944-7.237379z" fill="#f2c878" stroke="#000" stroke-width=".192996"/><path d="m31.731418 16.547578c-8.255072.819675-19.895996 3.741352-21.918912 11.786589-1.4311576 5.691784 4.103834 12.612522 9.71876 14.681524 9.752684 3.593707 18.420974 5.141104 28.432546.72374 6.852878-3.023659 10.684702-13.572461 7.54755-19.954474-3.655169-7.435822-15.534856-8.056062-23.779944-7.237379z" fill="none" stroke="#000" stroke-width=".192996"/><path d="m52.140396 40.631682-1.217575 1.206335s-.259023.500189-.391365.558959c-.102697.04559-.273626.109481-.273626.109481s-.316116.420316-.534596.555721c-.208021.128928-.700332.220407-.700332.220407l-1.33791.577816" fill="#f2c878" stroke="#000" stroke-width=".192996"/><path d="m9.6119833 30.088738s16.7238337 2.20707 25.0480777 1.407725c7.434969-.71395 21.724122-5.491736 21.724122-5.491736s-1.237795-4.370447-5.209495-6.629927c-8.894994-5.060311-25.652489-3.252556-33.587971.846175-4.091058 2.113061-6.224002 4.580889-7.19492 6.519563-.9709195 1.938674-.7798137 3.3482-.7798137 3.3482z" fill="url(#a)"/><path d="m56.605275 29.834851-.150614 1.694925s.400599.187247.333484.315569c-.05208.09955-.438646.621429-.438646.621429s.243748.661066.109656.950411c-.09236.199304-.54831.365543-.54831.365543l-.438654 1.261115" fill="#f2c878" stroke="#000" stroke-width=".192996"/><path d="m14.066078 39.459215-1.268064-1.351718s-.244598.0294-.316406-.09634c-.0557-.09757-.286421-.704657-.286421-.704657s-.688076-.15157-.859296-.420615c-.11794-.185321-.01182-.658885-.01182-.658885l-.721551-1.670253" fill="#f2c878" stroke="#000" stroke-width=".192996"/><path d="m37.365737 18.797648.405618-.04121s.20759-.09078.329048-.06798c.09421.01772.506171.0496.506171.0496s.483988-.0793.720982-.0515c.187888.02203.491071.165546.491071.165546l.407791.08038" fill="none" stroke="#e57a2e" stroke-linecap="round" stroke-width=".193301"/><path d="m26.041112 21.218181.445742-.13348s.212721-.210822.353971-.178902c.109586.02473.196158.06631.196158.06631s.769261-.165013 1.154911-.128672c.212521.01999.612022.188479.612022.188479l.475095.114879" fill="none" stroke="#db732c" stroke-linecap="round" stroke-width=".1933"/><path d="m36.488072 21.878627.25647-.05733s.234171-.186706.371166-.139775c.106286.0364.570959.102019.570959.102019s.545917-.163116.813234-.105914c.211938.04537.553927.340501.553927.340501l.258928.119642" fill="none" stroke="#ea7d2f" stroke-linecap="round" stroke-width=".1933"/><g stroke="#000"><path d="m22.108926 18.391491 2.715159-.757782s.214137-.564168.462119-.587021c.351038-.03567.776223.184744.776223.184744s.447795-.341704.59256-.338342c.112331.0029.329434.08728.329434.08728s.676207-.405778 1.050663-.398214c.131192.0029.362167.154276.362167.154276l5.233065-.345271" fill="#f6ad5b" stroke-width=".192996"/><path d="m39.262461 16.316631 3.494065.158244s.265574-.273918.498687-.18632c.331448.120999.791125.364419.791125.364419s.377804-.128453.5066-.06229c.09982.05164.432578.238511.432578.238511s.439201-.0051.648812.0507c.259883.0693.728947.346016.728947.346016s1.625097.512801 2.411502.837984c.694168.28704 2.029423.979683 2.029423.979683" fill="#f6ad5b" stroke-width=".192996"/><path d="m9.9766613 32.867416-.7145952-1.918701s-.4362809-.416888-.3607828-.654203c.1038177-.337225.47238-.643049.47238-.643049s-.140399-.545494-.080938-.677529c.046421-.102333.2086509-.269461.2086509-.269461s-.110487-.780833.042271-1.1228c.053767-.119708.2831081-.273524.2831081-.273524l.7500187-.895266" fill="#f4c673" stroke-width=".192996"/><path d="m33.398683 38.917368.25647.05733s.234171.186707.371166.139775c.106287-.0364.570959-.102019.570959-.102019s.545918.163116.813234.105914c.211938-.04537.553927-.340501.553927-.340501l.258928-.119642" fill="none" stroke-linecap="round" stroke-width=".1933"/><path d="m16.909604 34.580979.192087.179347s.349973.138447.49185.167398c.110078.02247.12101.409359.291809.497811.230528.119365.526559-.137988.775986-.06601.213116.06149.310609.377038.531139.400913.189142.0205.518563-.238409.518563-.238409" fill="none" stroke-linecap="round" stroke-width=".1933"/><path d="m45.510871 35.597974s.554466.175925.78763.05391c.184701-.09667.232304-.422183.320602-.536967.06849-.08903.366491.04099.536245-.01524.17419-.05763.288033-.231122.450784-.315824.174664-.09093.411432-.06725.555218-.201799.152073-.142298.251918-.571776.251918-.571776" fill="none" stroke-linecap="round" stroke-width=".1933"/></g></svg>