<svg viewBox="0 0 64 64" xmlns="http://www.w3.org/2000/svg"><path d="m4.8467512 33.637139 15.4051428-9.49601 39.439857 11.651111-16.35726 10.116841z" fill="#784421" stroke="#000" stroke-linejoin="round" stroke-width=".265"/><path d="m60.083588 26.579288-39.831694-10.717946v8.279787l39.439857 11.651111z" fill="#a0663f" stroke="#000" stroke-linejoin="round" stroke-width=".265"/><path d="m20.251894 22.892991 39.831694 10.717946" fill="none" stroke="#000" stroke-width=".265"/><path d="m20.251894 20.638422 39.831694 10.717946" fill="none" stroke="#000" stroke-width=".265"/><path d="m39.91794 29.099755c.813511-2.088431 13.152737-2.046127 13.152737.665189-.722931 2.307678-13.152737 1.39932-13.152737-.665189z" fill="#d38d5f" stroke="#000" stroke-linejoin="round" stroke-width=".265"/><path d="m45.917831 30.34723-1.637605-.172119-.342352-1.610643 1.426019-.823312 1.223681 1.101807z" style="opacity:.98;fill:#d4c300;stroke:#000;stroke-width:.227007;stroke-linecap:square;stroke-linejoin:round" transform="matrix(1.0674895 .47245156 -.47245156 1.0674895 13.040778 -22.567437)"/><path d="m4.8467512 24.755506 15.4051428-8.894164v8.279787l-15.4051428 9.49601z" fill="#a0663f" stroke="#000" stroke-linejoin="round" stroke-width=".265"/><path d="m4.8467512 29.532586 15.4051428-8.894164" fill="none" stroke="#000" stroke-width=".265"/><path d="m4.8467512 31.787155 15.4051428-8.894164" fill="none" stroke="#000" stroke-width=".265"/><path d="m12.974648 24.995844c.263376-5.434353 27.208056-3.639021 26.968346 1.307022-1.482296 2.302309-23.466649 2.479389-26.968346-1.307022z" fill="#d38d5f" stroke="#000" stroke-width=".265"/><path d="m12.612345 28.363107c4.68064-2.408137 21.930906-1.936235 26.968346 1.307023" fill="none" stroke="#000" stroke-width=".265"/><g stroke-width=".529866" transform="matrix(.50012599 0 0 .50012599 5.979979 -.731036)"><path d="m38.52349 46.705215s7.770568 2.033557 9.623573 5.167916c1.207077 2.041772 1.615279 5.240307-.07222 7.115307-2.625 2.8125-11.951357 1.919595-15.462406.217686-3.722917-1.804607-2.59247-5.735652-1.062416-7.817721 1.913374-2.603682 6.97347-4.683188 6.973469-4.683188z" fill="#ffe4d0" stroke="#000" stroke-linecap="square" stroke-linejoin="round" stroke-width=".529866"/><g fill="#ffd9bd"><path d="m38.53933 46.909435s-6.693238 4.68474-6.726384 5.21507c.140625.210937.254767.21829.629767.265165 1.06066-.331456 6.096617-5.480235 6.096617-5.480235z"/><path d="m38.53933 46.909435s-2.701428 5.125342-2.403117 5.887691c.234375.199219.823096.198042 1.209815.11601.894932-.961223 1.193302-6.003701 1.193302-6.003701z"/><path d="m38.53933 46.909435s1.207844 5.167707 2.434232 6.228367c.515625.08203.754307.07031.894932 0 .430893-.762349-3.329164-6.228367-3.329164-6.228367z"/><path d="m38.53933 46.909435s4.812998 5.159908 5.741076 5.491364c.316407-.04687.554601-.271685.613194-.447466-.09944-.662913-6.35427-5.043898-6.35427-5.043898z"/><path d="m38.53933 46.909435s7.646349 4.235406 8.077242 4.102823l-.03315-.281738c-.29831-.696058-8.044092-3.821085-8.044092-3.821085z"/></g></g><g stroke-width=".529866" transform="matrix(.50012599 0 0 .50012599 10.246478 -.356875)"><path d="m38.52349 46.705215s7.770568 2.033557 9.623573 5.167916c1.207077 2.041772 1.615279 5.240307-.07222 7.115307-2.625 2.8125-11.951357 1.919595-15.462406.217686-3.722917-1.804607-2.59247-5.735652-1.062416-7.817721 1.913374-2.603682 6.97347-4.683188 6.973469-4.683188z" fill="#ffe4d0" stroke="#000" stroke-linecap="square" stroke-linejoin="round" stroke-width=".529866"/><g fill="#ffd9bd"><path d="m38.53933 46.909435s-6.693238 4.68474-6.726384 5.21507c.140625.210937.254767.21829.629767.265165 1.06066-.331456 6.096617-5.480235 6.096617-5.480235z"/><path d="m38.53933 46.909435s-2.701428 5.125342-2.403117 5.887691c.234375.199219.823096.198042 1.209815.11601.894932-.961223 1.193302-6.003701 1.193302-6.003701z"/><path d="m38.53933 46.909435s1.207844 5.167707 2.434232 6.228367c.515625.08203.754307.07031.894932 0 .430893-.762349-3.329164-6.228367-3.329164-6.228367z"/><path d="m38.53933 46.909435s4.812998 5.159908 5.741076 5.491364c.316407-.04687.554601-.271685.613194-.447466-.09944-.662913-6.35427-5.043898-6.35427-5.043898z"/><path d="m38.53933 46.909435s7.646349 4.235406 8.077242 4.102823l-.03315-.281738c-.29831-.696058-8.044092-3.821085-8.044092-3.821085z"/></g></g><g stroke="#000"><path d="m12.974648 24.995844-.297035 6.128845c4.596158 5.064355 22.318508 5.526986 26.968346 1.307023l.297035-6.128846c-1.614097 2.507022-25.362014 1.815165-26.968346-1.307022z" fill="#d38d5f" stroke-linejoin="round" stroke-width=".265"/><path d="m45.917831 30.34723-1.637605-.172119-.342352-1.610643 1.426019-.823312 1.223681 1.101807z" fill="#d4c300" opacity=".98" stroke-linecap="square" stroke-linejoin="round" stroke-width=".227007" transform="matrix(1.0674895 .47245156 -.47245156 1.0674895 15.633294 -22.666274)"/><path d="m50.485261 31.323372-1.911685-.200926-.399651-1.88021 1.664687-.961108 1.428485 1.286213z" fill="#d4c300" opacity=".98" stroke-linecap="square" stroke-linejoin="round" stroke-width=".265"/><path d="m45.20797 30.159473-1.637606-.172119-.342352-1.610643 1.426019-.823313 1.223682 1.101808z" fill="#d4c300" opacity=".98" stroke-linecap="square" stroke-linejoin="round" stroke-width=".227007" transform="matrix(1.1035702 -.38062705 .38062705 1.1035702 -16.547565 14.99932)"/><path d="m52.131253 32.615813-1.911685-.200926-.399651-1.880211 1.664688-.961107 1.428484 1.286213z" fill="#d4c300" opacity=".98" stroke-linecap="square" stroke-linejoin="round" stroke-width=".265"/><path d="m46.533246 31.326125-1.911685-.200927-.399651-1.88021 1.664687-.961108 1.428485 1.286214z" fill="#d4c300" opacity=".98" stroke-linecap="square" stroke-linejoin="round" stroke-width=".265"/><path d="m49.137052 32.017378-1.911686-.200926-.399651-1.88021 1.664688-.961108 1.428484 1.286213z" fill="#d4c300" opacity=".98" stroke-linecap="square" stroke-linejoin="round" stroke-width=".265"/><path d="m46.368196 31.985247-1.911686-.200926-.399651-1.88021 1.664688-.961108 1.428484 1.286213z" fill="#d4c300" opacity=".98" stroke-linecap="square" stroke-linejoin="round" stroke-width=".265" transform="matrix(.8915 0 0 .88968372 4.765673 3.54299)"/><path d="m47.657424 30.5497-1.299428-.136575-.271654-1.278033 1.131536-.653293.970982.874276z" fill="#d4c300" opacity=".98" stroke-linecap="square" stroke-linejoin="round" stroke-width=".180128" transform="matrix(.98410248 1.0935716 -1.0935716 .98410248 33.012379 -49.409538)"/><path d="m42.959329 31.392636-1.911686-.200926-.399651-1.880211 1.664688-.961107 1.428484 1.286213z" fill="#d4c300" opacity=".98" stroke-linecap="square" stroke-linejoin="round" stroke-width=".265"/><path d="m39.91794 29.099755-.144867 6.401093c2.083582 1.433242 10.457575 2.196681 13.152737.342748l.144867-6.078652c-.565286 2.109675-12.56016 1.701923-13.152737-.665189z" fill="#d38d5f" stroke-linejoin="round" stroke-width=".265"/><path d="m44.495727 31.752822-1.637605-.172119-.342352-1.610643 1.426019-.823312 1.223681 1.101807z" fill="#d4c300" opacity=".98" stroke-linecap="square" stroke-linejoin="round" stroke-width=".227007" transform="matrix(.94119117 .69058196 -.69058196 .94119117 24.052698 -28.197279)"/><path d="m35.308175 31.884316c.813511-2.088431 13.152737-2.046127 13.152737.665189-.722931 2.307678-13.152737 1.39932-13.152737-.665189z" fill="#d38d5f" stroke-linejoin="round" stroke-width=".265"/><path d="m35.507049 32.282064c6.662271-3.303515 9.937611-.229743 12.788135.930354-.563476 1.458408-4.868861 1.475085-7.332709 1.214844-1.943205-.205249-5.223407-.852518-5.455426-2.145198z" fill="#f9f9f9" stroke-linejoin="round" stroke-width=".265"/><path d="m35.308175 31.884316-.144867 6.401093c2.083582 1.433242 10.457575 2.196681 13.152737.342748l.144867-6.078652c-.565286 2.109675-12.56016 1.701923-13.152737-.665189z" fill="#d38d5f" stroke-linejoin="round" stroke-width=".265"/><path d="m20.251894 18.250579 39.831694 10.717946" fill="none" stroke-width=".265"/><path d="m43.334491 36.249383 16.749097-9.670095-.391837 9.212952-16.35726 10.116841z" fill="#a0663f" stroke-linecap="round" stroke-linejoin="round" stroke-width=".265"/><path d="m38.52349 46.705215s7.770568 2.033557 9.623573 5.167916c1.207077 2.041772 1.615279 5.240307-.07222 7.115307-2.625 2.8125-11.951357 1.919595-15.462406.217686-3.722917-1.804607-2.59247-5.735652-1.062416-7.817721 1.913374-2.603682 6.97347-4.683188 6.973469-4.683188z" fill="#ffe4d0" stroke-linecap="square" stroke-linejoin="round" stroke-width=".265"/></g><path d="m38.53933 46.909435s-6.693238 4.68474-6.726384 5.21507c.140625.210937.254767.21829.629767.265165 1.06066-.331456 6.096617-5.480235 6.096617-5.480235z" fill="#ffd9bd"/><path d="m38.53933 46.909435s-2.701428 5.125342-2.403117 5.887691c.234375.199219.823096.198042 1.209815.11601.894932-.961223 1.193302-6.003701 1.193302-6.003701z" fill="#ffd9bd"/><path d="m38.53933 46.909435s1.207844 5.167707 2.434232 6.228367c.515625.08203.754307.07031.894932 0 .430893-.762349-3.329164-6.228367-3.329164-6.228367z" fill="#ffd9bd"/><path d="m38.53933 46.909435s4.812998 5.159908 5.741076 5.491364c.316407-.04687.554601-.271685.613194-.447466-.09944-.662913-6.35427-5.043898-6.35427-5.043898z" fill="#ffd9bd"/><path d="m38.53933 46.909435s7.646349 4.235406 8.077242 4.102823l-.03315-.281738c-.29831-.696058-8.044092-3.821085-8.044092-3.821085z" fill="#ffd9bd"/><path d="m19.325669 41.52875s7.770568 2.033557 9.623573 5.167916c1.207077 2.041772 1.615279 5.240306-.07222 7.115306-2.625 2.8125-11.951357 1.919595-15.462406.217686-3.722917-1.804607-2.59247-5.735651-1.062416-7.81772 1.913374-2.603682 6.97347-4.683188 6.973469-4.683188z" fill="#ffe4d0" stroke="#000" stroke-linecap="square" stroke-linejoin="round" stroke-width=".265"/><path d="m4.8467512 27.144743 15.4051428-8.894164" fill="none" stroke="#000" stroke-width=".265"/><path d="m4.8467512 24.755506v8.881633l38.4877398 12.271942v-9.659698z" fill="#a0663f" stroke="#000" stroke-linejoin="round" stroke-width=".265"/><path d="m19.383687 43.952223s6.515823.539368 8.170152 2.910249c1.160037 1.662492 1.380546 4.478781-.06172 6.081305-2.243533 2.403786-10.214578 1.640638-13.215399.186052-3.1819-1.542361-2.215731-4.902143-.908025-6.681644 1.548783-1.888415 6.014992-2.495962 6.014992-2.495962z" fill="#803300" stroke="#000" stroke-linecap="square" stroke-linejoin="round" stroke-width=".265"/><path d="m37.277162 32.284426.03305-.0026s.562116-.523861.907651-.504187c.273996.0156.669701.478912.669701.478912s.616148-.384913.924674-.289412c.152219.04712.295764.375552.295764.375552s-.223184-.06526-.338278-.07294c-.297649-.01986-.892134.07071-.892134.07071s-.409421-.21318-.633538-.232406c-.326417-.02801-.966886.176388-.966886.176389z" fill="#1a1a1a" opacity=".15"/><path d="m42.756519 32.670572.03279.0049s.665682-.383759.997902-.286747c.263438.07693.544595.617473.544595.617473s.687023-.236211.966104-.07366c.13769.0802.203554.432528.203554.432528s-.202744-.113861-.313149-.147273c-.285523-.08641-.885131-.132089-.885131-.132089s-.35087-.299936-.564894-.369158c-.311716-.100822-.981768-.04597-.981768-.04597z" fill="#1a1a1a" opacity=".15"/><path d="m40.562723 31.431419.03308.0021s.630668-.438933.969929-.370501c.269022.05426.595091.568967.595091.568967s.664469-.293732.956352-.155481c.144007.06821.239569.413669.239569.413669s-.211685-.09622-.32453-.120133c-.291832-.06184-.893153-.0564-.893153-.0564s-.375087-.269039-.594219-.319825c-.319155-.07397-.982123.03762-.982123.03762z" fill="#1a1a1a" opacity=".15"/><path d="m39.083782 33.323225.03304-.0027s.561599-.524413.907153-.50508c.274011.01533.670173.478252.670173.478252s.615768-.38552.924389-.290323c.152265.04697.296133.37526.296133.37526s-.223248-.06504-.33835-.07261c-.297668-.01957-.892064.07159-.892064.07159s-.409631-.212777-.633766-.231782c-.326444-.02768-.966712.17734-.966712.177341z" fill="#1a1a1a" opacity=".15"/><path d="m4.8467512 27.144743 38.4877398 11.891625" fill="none" stroke="#000" stroke-width=".265"/><path d="m4.8467512 29.532586 38.4877398 12.024207" fill="none" stroke="#000" stroke-width=".265"/><path d="m4.8467512 31.787155 38.4877398 11.962627" fill="none" stroke="#000" stroke-width=".265"/><path d="m43.334491 39.036368 16.643628-10.032687" fill="none" stroke="#000" stroke-linecap="round" stroke-width=".265"/><path d="m43.334491 41.556793 16.538159-10.094956" fill="none" stroke="#000" stroke-linecap="round" stroke-width=".265"/><path d="m43.475116 43.632595 16.303784-9.775564" fill="none" stroke="#000" stroke-linecap="round" stroke-width=".265"/></svg>