<svg viewBox="0 0 64 64" xmlns="http://www.w3.org/2000/svg" xmlns:xlink="http://www.w3.org/1999/xlink"><linearGradient id="a" gradientUnits="userSpaceOnUse" x1="106.106" x2="119.5363" y1="171.75407" y2="190.09544"><stop offset="0" stop-color="#97562a"/><stop offset="1" stop-color="#4a2814"/></linearGradient><g stroke-width=".208462" transform="matrix(1.2712148 0 0 1.2712148 -85.103268 -230.12365)"><g stroke="#000" transform="matrix(.96903702 -.2469155 .2469155 .96903702 -48.088054 33.267369)"><path d="m102.64932 186.382c1.91726 2.27281 3.66862 1.46197 5.36108.82573.82627-.31061 1.76177-1.14665 1.7036-2.02745-.11603-1.75689-3.90041-3.56202-3.90041-3.56202s-.46472-1.09634-.0824-1.2793c.18187-.88973 1.01774-.14565 1.92163-1.13632-.18189-.67773-1.41796-.65917-1.79135-.55492-.39507-.82323-1.68403-1.20879-1.65298-.86536.1357 1.50134.43932 1.80738.43932 1.80738l-.45798 1.77477s-.4652.42815-.7012.63846c-.46022.41012-1.18813.63439-1.39373 1.21553-.35707 1.00927-.10595 2.47483.55441 3.1635z" fill="url(#a)" stroke-width=".079226" transform="matrix(2.6312204 0 0 2.6312204 -191.34547 -279.27187)"/><path d="m84.005982 193.26832-1.205046 4.66981 4.272471.66767-.216813-3.36612z" fill="#d4aa00" stroke-width=".208462"/></g><g stroke="#000" transform="matrix(.96903702 -.2469155 .2469155 .96903702 -31.916712 31.634429)"><path d="m100.21094 187.23995c1.01891 1.0498 3.39857 1.20965 4.38691.13103.59724-.65179-.27099-1.75077-.31-2.63395-.069-1.56256.13545-4.69031.13545-4.69031s.25777-.91572.6401-1.09868c1.44557.10632 2.17784.29501 2.28662-.71403.047-.43619-.77832-.4854-.77832-.4854s.64039-.92992.0521-1.11093c-.58829-.18102-1.2825.10847-1.65589.21272-.39507-.82323-.80861-.99274-1.08955-.79279-.58678.41762.10167 2.14121.10167 2.14121l-1.045.96198s-.28939.29432-.40968.46104c-1.01341 1.40451-2.2259 2.80824-2.597884 4.49977-.224167 1.01936-.465856 2.39177.283484 3.1183 0 0-.00001.00003 0 .00004z" fill="url(#a)" stroke-width=".079226" transform="matrix(2.6312204 0 0 2.6312204 -191.34547 -279.27187)"/><path d="m82.24888 189.6085-2.749625 2.53118 3.915993 2.33105 1.684244-2.89087z" fill="#d4aa00" stroke-width=".208462"/></g><g transform="matrix(.96903702 -.2469155 .2469155 .96903702 -42.542196 35.693839)"><path d="m102.57373 187.23995c1.04782.49344 2.74538.57836 3.45846-.33429.65782-.84194-.19891-2.13751-.47248-3.17035-.0303-.11433-.12828-.33082-.12828-.33082s.25777-.91572.6401-1.09868c.89826-.37386.83301-.2444 1.10807-.33144.48803-.15442.48202-1.11552.17562-1.52557-.27934-.37384-1.0058-.34488-1.37919-.24063-.39507-.82323-.78502-1.29109-1.06596-1.09114-.58678.41762.0781 2.43956.0781 2.43956l-1.045.96198s-1.0926-.0921-1.55915.14174c-.73915.37043-1.22532.99575-1.6583 1.84446-.29933 1.11391.85256 2.26639 1.84803 2.73518z" fill="url(#a)" stroke="#000" stroke-width=".079226" transform="matrix(2.6312204 0 0 2.6312204 -191.34547 -279.27187)"/><g stroke="#d4aa00" stroke-linecap="round" stroke-width=".393325"><path d="m86.566153 196.62001s1.659375 1.86832 2.406435 2.86792c.72611.97158 2.01086 3.03274 2.01086 3.03274" fill="#a80" transform="translate(-4.775005 -3.720698)"/><path d="m86.566153 196.62001s2.329415 1.08251 3.240185 1.95536c.87573.83925 2.01086 3.03274 2.01086 3.03274" fill="none" transform="translate(-4.775005 -3.720698)"/><path d="m83.943808 192.83897s2.329415 1.08251 3.240185 1.95536c.87573.83925 2.01086 3.03274 2.01086 3.03274" fill="none" transform="translate(11.298823 -1.310124)"/><path d="m83.943808 192.83897s1.659375 1.86832 2.406435 2.86792c.72611.97158 2.01086 3.03274 2.01086 3.03274" fill="#a80" transform="translate(11.298823 -1.310124)"/><path d="m86.932475 202.51413s2.329415 1.08251 3.240185 1.95536c.87573.83925 2.01086 3.03274 2.01086 3.03274" fill="none"/><path d="m86.932475 202.51413s1.659375 1.86832 2.406435 2.86792c.72611.97158 2.01086 3.03274 2.01086 3.03274" fill="#a80"/></g><path d="m84.901492 198.44353-2.749625 2.53118 3.915993 2.33105 1.684244-2.89087z" fill="#d4aa00" stroke="#000" stroke-width=".208462"/></g></g></svg>