<svg viewBox="0 0 64 64" xmlns="http://www.w3.org/2000/svg"><path d="m22.851562 28.931641c-2.395398.068817-4.194759.554379-4.802734 1.607421v25.433594c4.434786 2.560425 22.77087 2.101143 26.410156 0v-20.464844c-1.86891-3.237048-14.421225-6.782625-21.607422-6.576171z" fill="#ececec" opacity=".3"/><path d="m18.048357 26.69611v29.276406c4.434786 2.560425 22.772252 2.101143 26.411538 0v-29.276406c-3.693162 2.132249-22.732883 2.123873-26.411538 0z" fill="#e6fffe" opacity=".2"/><path d="m27.283707 10.492771v-1.4999999l-2-.25v-5.2612622c0-2.0418282 12-2.0506419 12 0v5.2612622l-2 .25v1.4999999z" fill="#e9c6af" stroke="#000" stroke-linejoin="round" stroke-width=".265"/><path d="m23.07902 24.202904s4.0875.499563 4.0875-15.0695079c0 0 2.692797.5855859 4.087606.5856039 1.394729.000018 4.087394-.5854451 4.087394-.5854451 0 15.5082631 4.0875 15.0695071 4.0875 15.0695071" fill="#e6fffe" opacity=".2"/><path d="m18.048357 26.696109c3.659603 2.112873 22.696636 2.1448 26.411538 0-2.482689-4.300144-23.91622-4.322018-26.411538 0z" fill="#e6fffe" opacity=".2"/><g stroke="#000"><path d="m18.048357 26.696109v29.276407c4.434786 2.560425 22.772252 2.101143 26.411538 0v-29.276407c-3.693162 2.132249-22.732883 2.123873-26.411538 0z" fill="none" stroke-linejoin="round" stroke-width=".265"/><path d="m18.048357 26.696109c3.659603 2.112873 22.696636 2.1448 26.411538 0-2.482689-4.300144-23.91622-4.322018-26.411538 0z" fill="none" stroke-linejoin="round" stroke-width=".265"/><path d="m23.07902 24.202904s4.0875.499563 4.0875-15.0695085c0 0 .05319.5855245 4.087606.5856045 4.034333.0000799 4.087394-.5854457 4.087394-.5854457 0 15.5082637 4.0875 15.0695077 4.0875 15.0695077" fill="none" stroke-linejoin="round" stroke-width=".265"/><path d="m18.048358 55.972516c3.659603 2.112873 22.696635 2.1448 26.411537 0-2.482689-4.300144-23.916219-4.322018-26.411537 0z" fill="none" stroke-linejoin="round" stroke-width=".265"/><path d="m20.011879 33.843525v15.788865c3.775392 1.380845 19.386322 1.133153 22.484494 0v-15.788865c-3.144038 1.14993-19.352806 1.145412-22.484494 0z" fill="#fff3ea" stroke-linejoin="round" stroke-width=".265"/><path d="m39.71875 35.375v9.1875" fill="none" stroke-dasharray="4.5 1.5" stroke-width="1.5"/><path d="m36.53125 35.28125v13.21875" fill="none" stroke-dasharray="2.70992 1.35496" stroke-width="1.35496"/><path d="m22.46875 36.5625c-2.354135 0 0 8.71875 0 8.71875" fill="none" stroke-width=".5"/><path d="m20.011879 49.63239 7.613121-6.44489 8.34375 7.125 3.28125-3.5625 3.246373 2.88239" fill="none" stroke-width=".265"/><path d="m32.528429 36.5625c2.354135 0 0 8.71875 0 8.71875" fill="none" stroke-width=".5"/></g><path d="m29.804935 38.195427q0 .105469-.175781.34375-.08594.117187-.160156.207031-.07422.08984-.136719.152344-.132812.144531-.234375.21875-.05469.03906-.152344.109375-.09766.06641-.242187.167969-.144531.101562-.246094.179687-.09766.07813-.15625.132813.125.05078.253906.128906.132813.07422.269532.183594.140625.109375.257812.230468.121094.121094.222656.257813.203125.265625.203125.511719 0 .08984-.01172.1875-.01172.09375-.03125.199218-.03906.203125-.132813.316407-.125.15625-.480469.285156-.355468.125-.734375.195312-.191406.03906-.347656.05469-.15625.01953-.277344.01953-.28125 0-.703125-.09375-.421875-.101562-.585937-.242187-.214844-.191407-.214844-.585938 0-.1875.07031-.324219.03906-.06641.09766-.160156.0625-.09375.152344-.210937.101562-.132813.238281-.246094.140625-.117188.277344-.207031.136718-.09375.265625-.183594.132812-.08984.28125-.203125-.07422-.04297-.210938-.113281-.132812-.07422-.265625-.152344-.132812-.07813-.226562-.140625-.09375-.06641-.183594-.148438-.117188-.105468-.261719-.339843-.136719-.230469-.136719-.371094-.0078-.238281.113282-.421875.125-.183594.316406-.332031.195312-.148438.433594-.273438.238281-.128906.460937-.261719.347656-.214843.832031-.214843.08203-.0039.230469.03906.148438.04297.296875.109375.152344.06641.273438.140625.125.07422.160156.136719.06641.09766.109375.375.01953.136719.03125.214844.01172.07813.01953.09766.01953-.02344.04297-.05859.02734-.03516.05859-.08594.05859-.09766.08984-.136719.08984.02344.167969.125.08203.101562.08203.1875zm-.96875.144531q0-.15625-.05078-.285156-.05078-.128906-.144531-.222656-.09375-.09375-.222656-.144532-.128907-.05078-.285157-.05078-.183593 0-.457031.117188-.265625.109375-.511719.277343-.234375.160157-.335937.316407-.0625.08984-.0625.136718 0 .152344.121094.292969.121093.140625.3125.269531.09766.0625.199218.125.101563.0625.214844.125.113281.0625.183594.105469.07031.03906.101562.05859.08203-.06641.179688-.148438.09766-.08594.210937-.1875.117188-.09766.214844-.199218.101563-.105469.171875-.207032.07422-.101562.117188-.195312.04297-.09766.04297-.183594zm.05469 2.710938q0-.171875-.179688-.386719-.183593-.21875-.425781-.386719-.25-.171875-.425781-.234375-.40625.269531-.796875.644531-.394531.371094-.394531.675782 0 .164062.21875.257812.222656.09375.40625.09375.113281 0 .257812-.0078.144531-.0078.320313-.02344.179687-.01563.316406-.03906.136719-.02734.234375-.05859.03906-.01563.08984-.03906.05078-.02734.117187-.07031.128906-.08203.183594-.136719.07813-.07813.07813-.207031z"/><path d="m25.407266 3.5784448c.884899.510897 10.868852.5073081 11.747535 0 0-2.0189158-11.747535-2.0111438-11.747535 0z" fill="#e9ccb9"/></svg>