<?xml version="1.0" encoding="UTF-8" standalone="no"?>
<svg
   xmlns:dc="http://purl.org/dc/elements/1.1/"
   xmlns:cc="http://creativecommons.org/ns#"
   xmlns:rdf="http://www.w3.org/1999/02/22-rdf-syntax-ns#"
   xmlns:svg="http://www.w3.org/2000/svg"
   xmlns="http://www.w3.org/2000/svg"
   xmlns:sodipodi="http://sodipodi.sourceforge.net/DTD/sodipodi-0.dtd"
   xmlns:inkscape="http://www.inkscape.org/namespaces/inkscape"
   viewBox="0 0 64 64"
   version="1.1"
   id="svg4"
   sodipodi:docname="raccoon_dog_tanuki_sake.svg"
   inkscape:version="1.0.1 (3bc2e813f5, 2020-09-07)">
  <metadata
     id="metadata10">
    <rdf:RDF>
      <cc:Work
         rdf:about="">
        <dc:format>image/svg+xml</dc:format>
        <dc:type
           rdf:resource="http://purl.org/dc/dcmitype/StillImage" />
        <dc:title />
      </cc:Work>
    </rdf:RDF>
  </metadata>
  <defs
     id="defs8" />
  <sodipodi:namedview
     pagecolor="#ffffff"
     bordercolor="#666666"
     borderopacity="1"
     objecttolerance="10"
     gridtolerance="10"
     guidetolerance="10"
     inkscape:pageopacity="0"
     inkscape:pageshadow="2"
     inkscape:window-width="1920"
     inkscape:window-height="1057"
     id="namedview6"
     showgrid="false"
     inkscape:zoom="5.6568543"
     inkscape:cx="33.202515"
     inkscape:cy="16.683519"
     inkscape:window-x="-8"
     inkscape:window-y="-8"
     inkscape:window-maximized="1"
     inkscape:current-layer="svg4"
     inkscape:document-rotation="0" />
  <g
     id="g841"
     transform="translate(0,4.2426407)">
    <path
       style="fill:#ffe990;fill-opacity:1;stroke:#000000;stroke-width:0.265;stroke-linecap:butt;stroke-linejoin:miter;stroke-miterlimit:4;stroke-dasharray:none;stroke-opacity:1"
       d="m 29.367717,5.3091507 c 2.626158,-2.3057727 8.150682,-2.6014849 10.484256,0 1.966508,2.1922766 -1.061026,6.5651923 -0.956448,8.7831813 0.11627,2.465976 0.12323,3.398402 0.763384,5.82636 0.640154,2.427959 2.244958,3.898673 3.568177,5.982816 1.809691,2.850364 7.383267,3.162714 8.988244,6.491866 2.007622,4.164344 1.586951,9.807712 -0.649361,13.853848 -2.532336,4.581728 -7.846747,7.572883 -12.892255,8.968523 -3.971,1.09842 -8.451754,0.545281 -12.331721,-0.840799 C 21.48411,52.639515 16.132081,49.971591 13.730003,45.406422 11.089935,40.38895 10.605912,33.300616 13.456455,28.399658 c 1.720398,-2.957892 6.759658,-2.342604 9.003347,-4.931513 1.217956,-1.405353 2.878617,-2.943084 3.829105,-4.553383 0.950488,-1.610299 1.190801,-3.293164 1.954544,-4.988785 1.007234,-2.236205 -1.052421,-6.7056899 1.124266,-8.6168263 z"
       id="path877"
       sodipodi:nodetypes="aasssaaaaaasssa" />
    <path
       style="fill:#000000;fill-opacity:0.133065;stroke:none;stroke-width:1px;stroke-linecap:butt;stroke-linejoin:miter;stroke-opacity:1"
       d="m 12.171518,40.725726 c 0,0 2.814407,2.685783 5.622559,4.098109 2.535659,1.275279 9.155826,4.216503 14.080334,4.746859 3.014611,0.324665 6.094338,-0.287635 9.040559,-1.003922 2.293284,-0.557545 4.771907,-1.056549 6.610308,-2.536511 2.751114,-2.214719 4.526979,-8.893111 5.820649,-8.85339 0.348031,0.01069 0.344914,4.471586 -1.031015,7.461557 -2.226572,4.838466 -7.297866,9.209467 -12.616426,10.389254 -7.725812,1.713775 -16.995911,-0.758873 -22.989154,-5.926681 -3.660904,-3.156697 -4.537814,-8.375275 -4.537814,-8.375275 z"
       id="path857"
       sodipodi:nodetypes="csaaassasc" />
    <path
       style="fill:#deaa87;stroke:#000000;stroke-width:0.265;stroke-linecap:butt;stroke-linejoin:miter;stroke-miterlimit:4;stroke-dasharray:none;stroke-opacity:1"
       d="m 31.820511,0.12793124 0.32777,3.68433616 c 0,0 1.889027,0.1454951 2.829086,0.2599633 1.135762,0.1382986 3.393548,0.5153462 3.393548,0.5153462 l 1.052961,-3.83032167 c 0,0 -2.524615,-0.67117907 -3.819582,-0.776099 -1.258087,-0.10193178 -3.783783,0.14677501 -3.783783,0.14677501 z"
       id="path859"
       sodipodi:nodetypes="ccaccac" />
    <path
       style="fill:#502d16;stroke:#000000;stroke-width:0.265;stroke-linecap:butt;stroke-linejoin:miter;stroke-miterlimit:4;stroke-dasharray:none;stroke-opacity:1"
       d="m 28.550757,12.615931 c 0,0 2.11172,0.812968 3.21279,1.053497 1.507926,0.329406 3.057946,0.568395 4.600777,0.523434 0.851239,-0.02481 2.517301,-0.436131 2.517301,-0.436131 l 0.132447,2.025788 c 0,0 -1.568466,0.455822 -2.376705,0.492751 -1.932443,0.08829 -3.882932,-0.213345 -5.766292,-0.655032 -0.989827,-0.232135 -2.867631,-1.038986 -2.867631,-1.038986 z"
       id="path880"
       sodipodi:nodetypes="caaccaacc" />
    <g
       aria-label="8"
       transform="rotate(5.2673811,22.155239,-7.9776854)"
       id="text885"
       style="font-style:normal;font-variant:normal;font-weight:normal;font-stretch:normal;font-size:29.3333px;line-height:1.25;font-family:'Segoe Print';-inkscape-font-specification:'Segoe Print';letter-spacing:0px;word-spacing:0px;fill:#000000;fill-opacity:1;stroke:none">
      <path
         d="m 36.387009,8.5021379 q 0.614117,0.2491225 1.199265,0.8516519 0.590942,0.5967356 0.590942,1.0949812 0,0.52142 -0.185393,0.926968 -0.1796,0.399755 -1.193472,0.672052 -1.013871,0.266503 -1.610607,0.266503 -0.451896,0 -1.118155,-0.156426 -0.666259,-0.162219 -0.892207,-0.440309 -0.220156,-0.283884 -0.220156,-0.770543 0,-0.405549 0.359201,-0.88062 0.3592,-0.4808641 0.88062,-0.8226836 0.648878,-0.4461039 0.811097,-0.5735616 L 34.701086,8.4963442 Q 33.826259,8.03286 33.461266,7.5925498 q -0.3592,-0.4461031 -0.3592,-0.8284778 0,-0.4113416 0.289677,-0.7647485 0.295471,-0.3591998 1.22244,-0.8632393 0.231742,-0.1216639 0.451897,-0.2549162 0.509832,-0.3186454 1.262994,-0.3186454 0.243329,0 0.7184,0.2027744 0.475071,0.1969806 0.61991,0.3592006 0.150633,0.1564254 0.220155,0.6257034 0.06373,0.4576906 0.07532,0.4634843 0.06952,-0.086904 0.150631,-0.2143618 0.09849,-0.1622192 0.133253,-0.2027744 0.121664,0.028973 0.243329,0.1796003 0.127458,0.1506317 0.127458,0.283884 0,0.1448388 -0.353407,0.6372908 -0.353406,0.492452 -0.921174,0.8864133 -0.787924,0.5561805 -0.955936,0.7184004 z M 35.790273,8.1371444 q 1.390453,-1.1239491 1.390453,-1.6627501 0,-0.4634842 -0.289677,-0.7531611 -0.289678,-0.2896776 -0.753163,-0.2896776 -0.521419,0 -1.274581,0.4808646 -0.753162,0.4808646 -0.753162,0.7763359 0,0.5098324 1.257202,1.2050588 0.272296,0.1506325 0.422928,0.2433295 z m 1.471562,2.3579746 q 0,-0.347613 -0.486657,-0.8053035 -0.486659,-0.4634842 -1.042841,-0.6894326 -1.767032,1.2398201 -1.767032,1.9582211 0,0.243329 0.324439,0.382374 0.330233,0.139045 0.602529,0.139045 1.297756,0 1.830762,-0.266503 0.5388,-0.266504 0.5388,-0.596736 z"
         style="font-size:29.3333px;stroke-width:0.404495"
         id="path841" />
    </g>
  </g>
</svg>
