<?xml version="1.0" encoding="UTF-8" standalone="no"?>
<svg
   xmlns:dc="http://purl.org/dc/elements/1.1/"
   xmlns:cc="http://creativecommons.org/ns#"
   xmlns:rdf="http://www.w3.org/1999/02/22-rdf-syntax-ns#"
   xmlns:svg="http://www.w3.org/2000/svg"
   xmlns="http://www.w3.org/2000/svg"
   xmlns:sodipodi="http://sodipodi.sourceforge.net/DTD/sodipodi-0.dtd"
   xmlns:inkscape="http://www.inkscape.org/namespaces/inkscape"
   viewBox="0 0 64 64"
   version="1.1"
   id="svg4"
   sodipodi:docname="raccoon_dog_yellow_tea.svg"
   inkscape:version="1.0.1 (3bc2e813f5, 2020-09-07)">
  <metadata
     id="metadata10">
    <rdf:RDF>
      <cc:Work
         rdf:about="">
        <dc:format>image/svg+xml</dc:format>
        <dc:type
           rdf:resource="http://purl.org/dc/dcmitype/StillImage" />
        <dc:title />
      </cc:Work>
    </rdf:RDF>
  </metadata>
  <defs
     id="defs8" />
  <sodipodi:namedview
     pagecolor="#ffffff"
     bordercolor="#666666"
     borderopacity="1"
     objecttolerance="10"
     gridtolerance="10"
     guidetolerance="10"
     inkscape:pageopacity="0"
     inkscape:pageshadow="2"
     inkscape:window-width="1920"
     inkscape:window-height="1057"
     id="namedview6"
     showgrid="false"
     inkscape:zoom="22.627417"
     inkscape:cx="30.508737"
     inkscape:cy="37.505669"
     inkscape:window-x="-8"
     inkscape:window-y="-8"
     inkscape:window-maximized="1"
     inkscape:current-layer="svg4"
     inkscape:document-rotation="0" />
  <path
     style="fill:#f4cfb3;stroke:#000000;stroke-width:0.265;stroke-linecap:butt;stroke-linejoin:miter;stroke-miterlimit:4;stroke-dasharray:none;stroke-opacity:1;fill-opacity:1"
     d="m 41.998823,12.223417 c 2.633924,1.412673 4.148171,4.253258 4.811172,7.566467 0.423084,3.516144 -5.13088,8.494032 -6.48741,11.668387 0,0 11.292022,8.596614 11.243379,14.788951 -0.03638,4.631468 -4.317932,9.119638 -8.582051,10.927707 -7.189476,3.048476 -16.661037,1.698447 -23.30315,-2.408147 -3.144755,-1.944296 -6.139695,-5.667925 -5.950765,-9.36036 C 14.086678,38.43548 26.709419,28.973956 26.709419,28.973956 26.894101,26.438221 25.523962,16.084511 29.79503,12.4656 32.899276,9.8353463 38.413249,10.300337 41.998823,12.223417 Z"
     id="path877"
     sodipodi:nodetypes="accaaaacaa" />
  <path
     style="fill:#00b600;fill-opacity:1;stroke:none;stroke-width:1px;stroke-linecap:butt;stroke-linejoin:miter;stroke-opacity:1"
     d="M 51.443719,44.808677 C 51.22268,43.717998 49.07493,42.456063 49.07493,42.456063 c 0,0 -1.673568,1.835748 -2.185667,2.946136 -0.877667,1.903051 0.186586,4.768044 -1.408558,6.127241 -3.522698,3.001636 -9.226136,1.004402 -13.853521,0.923568 -3.341536,-0.05837 -6.955742,0.418007 -9.974535,-1.015925 -1.533727,-0.728524 -3.601915,-3.601915 -3.601915,-3.601915 0,0 0.423579,2.358898 0.936132,3.426085 0.518125,1.078789 2.111642,2.903637 2.111642,2.903637 0,0 1.393823,0.800683 3.175928,1.639719 1.782104,0.839037 3.952489,1.716427 5.505612,1.86984 5.924501,0.585205 13.189091,0.254604 17.874324,-3.618723 2.567379,-2.122476 4.450985,-5.982302 3.789347,-9.247049 z"
     id="path844"
     sodipodi:nodetypes="acaaaacacssaa" />
  <path
     style="fill:#008000;stroke:none;stroke-width:1px;stroke-linecap:butt;stroke-linejoin:miter;stroke-opacity:1"
     d="m 13.886119,47.486227 c -0.378569,-1.185865 0.278993,-3.724041 0.278993,-3.724041 0,0 3.1235,1.158045 4.275463,2.293074 1.806207,1.779656 1.552865,5.291774 3.694272,6.64969 3.908503,2.478473 9.226136,1.004402 13.853521,0.923568 3.341536,-0.05837 6.955742,0.418007 9.974535,-1.015925 1.533727,-0.728524 3.601915,-3.601915 3.601915,-3.601915 0,0 -0.404041,2.368503 -0.936132,3.426085 -0.528161,1.049771 -2.176948,2.773025 -2.176948,2.773025 0,0 -1.328517,0.931295 -3.110622,1.770331 -1.782104,0.839037 -4.091024,1.485535 -5.644147,1.638948 C 31.772468,59.204272 25.37234,58.218902 20.287711,55.198583 17.41526,53.492319 14.902166,50.668987 13.886119,47.486227 Z"
     id="path838"
     sodipodi:nodetypes="acaaaacacssaa" />
  <path
     style="fill:#000000;fill-opacity:0.145161;stroke:none;stroke-width:0.265;stroke-linecap:butt;stroke-linejoin:miter;stroke-miterlimit:4;stroke-dasharray:none;stroke-opacity:1"
     d="m 15.665555,51.039126 c 0,0 7.507589,2.546015 11.366473,2.308581 7.535036,-0.463624 16.773751,-1.287727 21.47465,-7.194779 2.75247,-3.458696 2.834905,-2.666611 3.017825,-0.189917 0.09146,1.238346 -0.08807,2.556213 -1.062805,4.269926 -0.953148,1.675766 -2.005261,3.671484 -5.444365,5.895762 -2.301973,1.488826 -5.287209,2.321309 -8.221698,2.5901 -2.934489,0.268791 -5.926155,-0.04474 -8.749472,-0.420583 -2.606898,-0.347036 -5.238679,-1.617226 -7.550847,-3.036064 -0.911366,-0.55925 -2.257341,-1.545739 -3.23694,-2.461683 -0.979599,-0.915944 -1.592821,-1.761343 -1.592821,-1.761343 z"
     id="path830"
     sodipodi:nodetypes="cassssssssc" />
  <path
     style="fill:none;stroke:#000000;stroke-width:0.265;stroke-linecap:butt;stroke-linejoin:miter;stroke-miterlimit:4;stroke-dasharray:none;stroke-opacity:1"
     d="m 41.998823,12.223417 c 2.633924,1.412673 4.148171,4.253258 4.811172,7.566467 0.423084,3.516144 -5.13088,8.494032 -6.48741,11.668387 0,0 11.292022,8.596614 11.243379,14.788951 -0.03638,4.631468 -4.317932,9.119638 -8.582051,10.927707 -7.189476,3.048476 -16.661037,1.698447 -23.30315,-2.408147 -3.144755,-1.944296 -6.139695,-5.667925 -5.950765,-9.36036 C 14.086678,38.43548 26.709419,28.973956 26.709419,28.973956 26.894101,26.438221 25.523962,16.084511 29.79503,12.4656 32.899276,9.8353463 38.413249,10.300337 41.998823,12.223417 Z"
     id="path840"
     sodipodi:nodetypes="accaaaacaa" />
  <path
     style="fill:#552200;stroke:#000000;stroke-width:0.265;stroke-linecap:butt;stroke-linejoin:miter;stroke-miterlimit:4;stroke-dasharray:none;stroke-opacity:1"
     d="m 26.768081,27.691649 -0.138536,-3.070865 c 0,0 3.189226,0.891625 4.799767,1.274086 2.326904,0.552579 4.650798,1.160986 7.021904,1.47353 1.436072,0.189294 4.338848,0.240052 4.338848,0.240052 l -1.845214,2.692271 c 0,0 -2.245923,-0.012 -3.355177,-0.164903 -2.320439,-0.319858 -4.564913,-1.05299 -6.85025,-1.566784 -1.322687,-0.297369 -3.971342,-0.877392 -3.971342,-0.877392 z"
     id="path846"
     sodipodi:nodetypes="ccaaccaacc" />
  <path
     style="fill:#e3dbdb;stroke:#000000;stroke-width:0.265;stroke-linecap:butt;stroke-linejoin:miter;stroke-miterlimit:4;stroke-dasharray:none;stroke-opacity:1"
     d="m 36.826842,7.2361495 -0.738855,3.4172015 c 0,0 1.952156,0.755042 2.961981,1.021527 0.966719,0.25511 2.948855,0.548539 2.948855,0.548539 l 1.015925,-3.140132 c 0,0 -1.916761,-0.7572854 -2.902278,-1.0541797 C 39.033706,7.7041197 36.826842,7.2361495 36.826842,7.2361495 Z"
     id="path848"
     sodipodi:nodetypes="ccaccac" />
  <ellipse
     style="fill:#483737;fill-opacity:1;stroke:none;stroke-width:0.667499;stroke-linecap:round;stroke-linejoin:round;stroke-miterlimit:4;stroke-dasharray:none"
     id="path858"
     cx="57.412689"
     cy="-23.091103"
     rx="3.6507306"
     ry="4.2960081"
     transform="matrix(0.29781649,0.95462314,-0.90568086,0.42396011,0,0)" />
  <ellipse
     style="fill:#483737;fill-opacity:1;stroke:none;stroke-width:0.770407;stroke-linecap:round;stroke-linejoin:round;stroke-miterlimit:4;stroke-dasharray:none"
     id="path860"
     cx="17.740795"
     cy="-50.114811"
     rx="2.1236768"
     ry="1.3466778"
     transform="matrix(-0.52667299,0.85006797,-0.84624569,-0.53279285,0,0)" />
  <ellipse
     style="fill:#483737;fill-opacity:1;stroke:none;stroke-width:0.770397;stroke-linecap:round;stroke-linejoin:round;stroke-miterlimit:4;stroke-dasharray:none"
     id="path866"
     cx="44.604145"
     cy="-34.079369"
     rx="1.6446596"
     ry="1.1517135"
     transform="matrix(-0.05738083,0.99835236,-0.99829872,-0.05830664,0,0)" />
  <ellipse
     style="fill:#483737;fill-opacity:1;stroke:none;stroke-width:0.770397;stroke-linecap:round;stroke-linejoin:round;stroke-miterlimit:4;stroke-dasharray:none"
     id="path868"
     cx="-35.023029"
     cy="-41.383198"
     rx="2.0155029"
     ry="1.3544226"
     transform="matrix(-0.99815741,0.06067771,-0.05971452,-0.9982155,0,0)" />
</svg>
