<?xml version="1.0" encoding="UTF-8" standalone="no"?>
<svg
   xmlns:dc="http://purl.org/dc/elements/1.1/"
   xmlns:cc="http://creativecommons.org/ns#"
   xmlns:rdf="http://www.w3.org/1999/02/22-rdf-syntax-ns#"
   xmlns:svg="http://www.w3.org/2000/svg"
   xmlns="http://www.w3.org/2000/svg"
   xmlns:sodipodi="http://sodipodi.sourceforge.net/DTD/sodipodi-0.dtd"
   xmlns:inkscape="http://www.inkscape.org/namespaces/inkscape"
   viewBox="0 0 64 64"
   version="1.1"
   id="svg4"
   sodipodi:docname="raccoondogicon.svg"
   inkscape:version="1.0.1 (3bc2e813f5, 2020-09-07)">
  <metadata
     id="metadata10">
    <rdf:RDF>
      <cc:Work
         rdf:about="">
        <dc:format>image/svg+xml</dc:format>
        <dc:type
           rdf:resource="http://purl.org/dc/dcmitype/StillImage" />
        <dc:title />
      </cc:Work>
    </rdf:RDF>
  </metadata>
  <defs
     id="defs8" />
  <sodipodi:namedview
     pagecolor="#ffffff"
     bordercolor="#666666"
     borderopacity="1"
     objecttolerance="10"
     gridtolerance="10"
     guidetolerance="10"
     inkscape:pageopacity="0"
     inkscape:pageshadow="2"
     inkscape:window-width="1920"
     inkscape:window-height="1057"
     id="namedview6"
     showgrid="false"
     inkscape:zoom="11.484375"
     inkscape:cx="45.191912"
     inkscape:cy="24.131904"
     inkscape:window-x="-8"
     inkscape:window-y="-8"
     inkscape:window-maximized="1"
     inkscape:current-layer="svg4"
     inkscape:document-rotation="0" />
  <path
     id="path4851"
     style="fill:#ff8080;fill-opacity:1;stroke:#000300;stroke-width:0.5;stroke-linecap:round;stroke-linejoin:round;stroke-miterlimit:4;stroke-dasharray:none;stroke-opacity:1"
     d="M 15.943359 17.78125 C 15.668182 17.774135 15.401754 17.792603 15.146484 17.841797 C 14.874195 17.894267 14.615109 17.980584 14.371094 18.105469 C 12.095244 19.270222 13.103516 25.669922 13.103516 25.669922 L 26.169922 23.929688 C 26.169922 23.929688 20.071013 17.88797 15.943359 17.78125 z M 48.664062 17.78125 C 44.536407 17.887969 38.4375 23.929688 38.4375 23.929688 L 51.505859 25.669922 C 51.505859 25.669922 52.512175 19.270223 50.236328 18.105469 C 49.992313 17.980585 49.733227 17.894267 49.460938 17.841797 C 49.205668 17.792603 48.93924 17.774135 48.664062 17.78125 z M 16.292969 18.789062 C 19.332895 18.867663 23.824219 23.318359 23.824219 23.318359 L 14.201172 24.599609 C 14.201172 24.599609 13.458646 19.887116 15.134766 19.029297 C 15.314478 18.937327 15.506497 18.872629 15.707031 18.833984 C 15.895032 18.797754 16.090307 18.783822 16.292969 18.789062 z M 48.314453 18.789062 C 48.517115 18.783822 48.71239 18.797754 48.900391 18.833984 C 49.100929 18.872629 49.292944 18.937327 49.472656 19.029297 C 51.148777 19.887116 50.40625 24.599609 50.40625 24.599609 L 40.783203 23.318359 C 40.783203 23.318359 45.274527 18.867663 48.314453 18.789062 z M 21.435547 31.828125 C 17.307478 31.816385 14.655554 35.673396 11.324219 38.976562 C 8.3053251 41.904635 11.324219 50.935547 11.324219 50.935547 C 14.625895 48.159786 29.433804 43.621504 27.628906 36.259766 C 26.77608 33.644391 23.973811 31.835342 21.435547 31.828125 z M 42.519531 31.828125 C 39.981269 31.835342 37.178998 33.644392 36.326172 36.259766 C 34.521273 43.621505 49.331139 48.159783 52.632812 50.935547 C 52.632812 50.935547 55.651708 41.904637 52.632812 38.976562 C 49.301477 35.673396 46.647599 31.816385 42.519531 31.828125 z M 22.054688 33.228516 C 23.50729 33.216737 24.922617 33.824437 25.455078 35.171875 C 26.059498 36.865541 26.025378 38.623443 23.142578 39.652344 C 20.259748 40.681256 18.993165 39.584287 18.388672 37.890625 C 17.107972 34.989254 19.633683 33.248146 22.054688 33.228516 z M 41.900391 33.228516 C 44.321395 33.248146 46.847104 34.989255 45.566406 37.890625 C 44.961914 39.584288 43.695333 40.681256 40.8125 39.652344 C 37.929699 38.623444 37.89558 36.865541 38.5 35.171875 C 39.032461 33.824436 40.447788 33.216738 41.900391 33.228516 z " />
</svg>
