<svg viewBox="0 0 64 64" xmlns="http://www.w3.org/2000/svg"><path d="m48.314453 13.617081c.202662-.0052.397937.0087.585938.04492.200538.03864.392553.103343.572265.195313 1.676121.857819.933594 5.570312.933594 5.570312l-9.623047-1.28125s4.491324-4.450696 7.53125-4.529297zm-32.021484 0c3.039926.0786 7.53125 4.529297 7.53125 4.529297l-9.623047 1.28125s-.742526-4.712493.933594-5.570312c.179712-.09197.371731-.156668.572265-.195313.188001-.03623.383276-.05016.585938-.04492zm5.761719 14.439454c1.452602-.01178 2.867929.595921 3.40039 1.943359.60442 1.693666.5703 3.451568-2.3125 4.480469-2.88283 1.028912-4.149413-.06806-4.753906-1.761719-1.2807-2.901371 1.245011-4.642479 3.666016-4.662109zm19.845703 0c2.421004.01963 4.946713 1.760739 3.666015 4.662109-.604492 1.693663-1.871073 2.790631-4.753906 1.761719-2.882801-1.0289-2.91692-2.786803-2.3125-4.480469.532461-1.347439 1.947788-1.955137 3.400391-1.943359zm-25.957032-15.447266c-.275177-.0071-.541605.01135-.796875.06055-.272289.05247-.531375.138787-.77539.263672-2.27585 1.164753-1.267578 7.564453-1.267578 7.564453l13.066406-1.740234s-6.098909-6.041718-10.226563-6.148438zm32.720703 0c-4.127655.106719-10.226562 6.148438-10.226562 6.148438l13.068359 1.740234s1.006316-6.399699-1.269531-7.564453c-.244015-.124884-.503101-.211202-.77539-.263672-.25527-.04919-.521698-.06766-.796876-.06055zm-27.228515 14.046875c-4.128069-.01174-6.779993 3.845271-10.111328 7.148437-3.0188939 2.928073 0 11.958985 0 11.958985 3.301676-2.775761 18.109585-7.314043 16.304687-14.675781-.852826-2.615375-3.655095-4.424424-6.193359-4.431641zm21.083984 0c-2.538262.0072-5.340533 1.816267-6.193359 4.431641-1.804899 7.361739 13.004967 11.900017 16.30664 14.675781 0 0 3.018896-9.03091 0-11.958985-3.331335-3.303166-5.985213-7.160177-10.113281-7.148437z" fill="#ff8080" stroke="#000" stroke-linecap="round" stroke-linejoin="round" stroke-width=".5"/></svg>