<svg viewBox="0 0 64 64" xmlns="http://www.w3.org/2000/svg"><g stroke="#000"><ellipse cx="28.466" cy="35.066" fill="#ffe6d5" fill-rule="evenodd" rx="29.831" ry="29.831" stroke-width="2" transform="matrix(.9945146 -.10459789 .10459789 .9945146 0 0)"/><g stroke-width="1.70374" transform="matrix(.40169589 -.08629933 .08629933 .40169589 -8.76245 -.94514)"><path d="m119.76114 53.244691 6.39391 2.429961-14.19484 5.511867s-13.213539 16.705939-22.832758 19.358207c-9.702173 2.675141-29.781857-4.963642-29.781857-4.963642s10.975338-16.894826 19.854571-19.854571c5.549522-1.849841 17.372751 2.48182 17.372751 2.48182l14.841593 2.212497z" fill="#008000" stroke-width="1.70374"/><g fill="none" stroke-linecap="round" stroke-width=".908165" transform="matrix(1.8749925 .06215635 -.06215635 1.8749925 -63.705974 -56.685613)"><path d="m74.664618 65.293008 17.939549-4.968008"/><path d="m83.343749 66.145832 2.645833-3.968749-5.027082-1.058333"/><path d="m79.374999 64.029166-1.322917 2.116666"/><path d="m79.374999 64.029166-2.116667-.264583"/></g></g></g></svg>