<svg viewBox="0 0 64 64" xmlns="http://www.w3.org/2000/svg"><ellipse cx="28.466" cy="35.066" fill="#ffe6d5" fill-rule="evenodd" rx="29.831" ry="29.831" stroke="#000" stroke-width="2" transform="matrix(.9945146 -.10459789 .10459789 .9945146 0 0)"/><g fill="#4a2800"><path d="m2.2071711 29.287405s-.2950543 3.572548-.044819 5.332363c.4307448 3.029275 2.632732 8.793587 2.632732 8.793587l31.7726629-40.9449594s-4.296341-.5086836-6.442567-.3657473c-2.580035.1718275-7.618077 1.4628241-7.618077 1.4628241z"/><path d="m9.6358931 51.796775 36.3391209-46.1882481s3.18157 1.6300095 4.548854 2.7594993c1.442615 1.1917194 3.76518 4.1635808 3.76518 4.1635808l-18.239109 22.379265-18.101934 23.104594s-3.156818-1.868344-4.61784-2.970811c-1.308841-.987633-3.6942719-3.24788-3.6942719-3.24788z"/><path d="m28.014897 61.340311 31.493671-41.098778s1.462648 4.742613 1.779261 7.191763c.334069 2.584179.114053 7.816217.114053 7.816217l-19.256394 24.520733s-4.710346 1.353189-7.134564 1.616244c-2.31845.251577-6.996027-.04618-6.996027-.04618z"/></g><ellipse cx="28.466" cy="35.066" fill="none" rx="29.831" ry="29.831" stroke="#000" stroke-width="2" transform="matrix(.9945146 -.10459789 .10459789 .9945146 0 0)"/></svg>