<svg viewBox="0 0 64 64" xmlns="http://www.w3.org/2000/svg"><g stroke="#000" stroke-width="1.067074" transform="matrix(.65599923 0 0 .65599923 11.128509 14.889161)"><path d="m.29698674 36.719707c-4.60197754 4.463532 0 18.228347 0 18.228347 5.03304876-4.231348 27.60820926-11.148979 24.85683626-22.371154-1.300041-3.986857-5.571454-6.743034-9.440763-6.754036-6.2927957-.017894-10.3378133 5.861522-15.41607326 10.896843zm21.54259126-5.799931c.921373 2.581811.869896 5.262005-3.524622 6.830452-4.394563 1.568466-6.325189-.105839-7.246673-2.687643-3.1236613-7.076522 8.606817-9.620208 10.771295-4.142809z" fill="#ff8080" stroke-linecap="round" stroke-linejoin="round" stroke-width="1.067074"/><g stroke-width="1.703737" transform="matrix(.61234202 -.13155401 .13155401 .61234202 -23.809629 -23.876054)"><path d="m119.76114 53.244691 6.39391 2.429961-14.19484 5.511867s-13.213539 16.705939-22.832758 19.358207c-9.702173 2.675141-29.781857-4.963642-29.781857-4.963642s10.975338-16.894826 19.854571-19.854571c5.549522-1.849841 17.372751 2.48182 17.372751 2.48182l14.841593 2.212497z" fill="#008000" stroke-width="1.703737"/><g fill="none" stroke-linecap="round" stroke-width=".908165" transform="matrix(1.8749925 .06215635 -.06215635 1.8749925 -63.705974 -56.685613)"><path d="m74.664618 65.293008 17.939549-4.968008"/><path d="m83.343749 66.145832 2.645833-3.968749-5.027082-1.058333"/><path d="m79.374999 64.029166-1.322917 2.116666"/><path d="m79.374999 64.029166-2.116667-.264583"/></g></g><g fill="#ff8080" stroke-linecap="round" stroke-linejoin="round" stroke-width="1.067074"><path d="m63.267639 36.719707c4.60198 4.463534 0 18.22835 0 18.22835-5.033047-4.231353-27.608209-11.148984-24.856835-22.37116 1.300041-3.986856 5.571455-6.743033 9.440761-6.754035 6.292795-.01789 10.337812 5.861525 15.416074 10.896845zm-21.54259-5.799931c-.921373 2.58181-.869897 5.262002 3.524621 6.83045 4.394568 1.568465 6.325194-.105835 7.246676-2.687645 3.123659-7.07652-8.60682-9.620206-10.771297-4.142805z"/><path d="m6.126432 4.5016782c-.4150744.0799903-.810734.212017-1.1827082.4023908-3.4692869 1.7755397-1.9344336 11.530531-1.9344336 11.530531l19.9202068-2.653093s-10.576973-10.4796842-16.803065-9.2798288zm.8524817 1.5124259c4.5853973-.8836698 12.3749813 6.8344619 12.3749813 6.8344619l-14.6708929 1.953996s-1.1302222-7.1844804 1.4248419-8.4921321c.2739522-.1402046.5653771-.2374149.8710697-.2963258z"/><path d="m58.432475 4.5016787c.415078.079991.810739.2120173 1.182714.4023903 3.469283 1.7755405 1.934431 11.530531 1.934431 11.530531l-19.920216-2.653093s10.576977-10.4796836 16.803071-9.2798283zm-.852482 1.5124262c-4.585395-.8836706-12.374987 6.8344611-12.374987 6.8344611l14.670904 1.953996s1.130221-7.1844804-1.424845-8.4921321c-.273951-.1402046-.565374-.2374149-.871072-.296325z"/></g></g></svg>